<svg xmlns="http://www.w3.org/2000/svg" width="100%" height="100%" viewBox="0 0 1440 900" preserveAspectRatio="xMidYMid slice">
  <rect width="100%" height="100%" fill="#ECFDF5"/>

  <g fill-opacity="0.08">
    <path fill="#34D399" d="M0,320L48,336C96,352,192,384,288,389.3C384,395,480,373,576,352C672,331,768,309,864,309.3C960,309,1056,331,1152,346.7C1248,363,1344,373,1392,378.7L1440,384L1440,900L1392,900C1344,900,1248,900,1152,900C1056,900,960,900,864,900C768,900,672,900,576,900C480,900,384,900,288,900C192,900,96,900,48,900L0,900Z"/>

    <path fill="#10b981" d="M0,448L48,464C96,480,192,512,288,512C384,512,480,480,576,464C672,448,768,448,864,464C960,480,1056,512,1152,522.7C1248,533,1344,523,1392,517.3L1440,512L1440,900L1392,900C1344,900,1248,900,1152,900C1056,900,960,900,864,900C768,900,672,900,576,900C480,900,384,900,288,900C192,900,96,900,48,900L0,900Z" transform="translate(0, 100)"/>

    <path fill="#059669" fill-opacity="0.15" d="M0,576L48,586.7C96,597,192,619,288,613.3C384,608,480,576,576,565.3C672,555,768,565,864,581.3C960,597,1056,619,1152,618.7C1248,619,1344,597,1392,586.7L1440,576L1440,900L1392,900C1344,900,1248,900,1152,900C1056,900,960,900,864,900C768,900,672,900,576,900C480,900,384,900,288,900C192,900,96,900,48,900L0,900Z" transform="translate(0, 150)"/>
  </g>
</svg>